<svg width="12" height="12" viewBox="0 0 12 12" fill="none" xmlns="http://www.w3.org/2000/svg">
<g clip-path="url(#clip0_334_871)">
<path d="M11.1401 0.85988C11.0845 0.804272 11.0127 0.767566 10.935 0.754949C10.8574 0.742332 10.7777 0.754442 10.7073 0.789567L0.95727 5.66457C0.890037 5.69816 0.834449 5.75118 0.797716 5.81675C0.760984 5.88232 0.744802 5.95742 0.751269 6.03229C0.757736 6.10717 0.786555 6.17838 0.833986 6.23668C0.881417 6.29498 0.945273 6.33769 1.01727 6.35925L4.57392 7.42602L5.64068 10.9827C5.66233 11.0546 5.70507 11.1184 5.76337 11.1658C5.82168 11.2132 5.89286 11.242 5.96772 11.2485C5.97871 11.2496 5.98932 11.25 5.99993 11.25C6.06956 11.25 6.13781 11.2306 6.19705 11.194C6.25629 11.1574 6.30418 11.105 6.33537 11.0427L11.2104 1.29274C11.2456 1.22235 11.2577 1.14266 11.2451 1.06497C11.2325 0.987286 11.1958 0.915534 11.1401 0.85988Z" fill="#4F4F4F"/>
<path d="M5.64109 10.9822C5.66274 11.0541 5.70548 11.1179 5.76378 11.1653C5.82209 11.2127 5.89327 11.2415 5.96813 11.248C5.97912 11.2491 5.98973 11.2495 6.00034 11.2495C6.06998 11.2495 6.13822 11.23 6.19746 11.1934C6.2567 11.1568 6.30459 11.1045 6.33578 11.0422L11.2108 1.29224C11.246 1.22183 11.2581 1.14215 11.2455 1.06446C11.2329 0.986769 11.1961 0.91502 11.1405 0.859375L4.57422 7.42562L5.64109 10.9822Z" fill="#4F4F4F"/>
<path d="M11.2104 0.957258C11.1658 0.868387 11.0878 0.800825 10.9935 0.769388C10.8992 0.73795 10.7962 0.745204 10.7072 0.789558L0.957241 5.66456C0.868277 5.70904 0.80063 5.78705 0.76918 5.88141C0.73773 5.97578 0.745054 6.07877 0.789541 6.16773C0.834027 6.2567 0.912033 6.32434 1.0064 6.35579C1.10076 6.38724 1.20375 6.37992 1.29272 6.33543L11.0427 1.46043C11.0868 1.43841 11.1261 1.40792 11.1583 1.37072C11.1906 1.33351 11.2152 1.29031 11.2308 1.24358C11.2464 1.19686 11.2526 1.14752 11.2491 1.09839C11.2456 1.04927 11.2324 1.00131 11.2104 0.957258Z" fill="#4F4F4F"/>
</g>
<defs>
<clipPath id="clip0_334_871">
<rect width="12" height="12" fill="white"/>
</clipPath>
</defs>
</svg>
