<svg width="26" height="50" viewBox="0 0 26 50" fill="none" xmlns="http://www.w3.org/2000/svg">
<path d="M20.9088 34.2803C19.0466 35.5307 18.7512 36.8924 18.6998 37.2762C18.4044 37.4495 18.1347 37.5981 17.8779 37.7219C18.276 37.0905 18.6484 36.4468 18.9823 35.7906C19.5474 34.6641 20.0483 33.5127 20.4592 32.3243C20.5106 32.2005 20.5491 32.0643 20.5877 31.9281C20.9087 30.9501 21.3839 30.034 22.0004 29.2046C22.0389 29.155 22.0774 29.0931 22.1288 29.0436C27.3431 26.2953 24.9542 20.6749 24.9542 20.6749C25.0312 21.9128 23.7983 22.8537 22.514 25.1192C21.4352 27.0381 21.7949 28.3875 21.9233 28.7465C21.6536 29.1427 21.4096 29.4893 21.1913 29.774C21.2812 29.415 21.3582 29.056 21.4224 28.6846C21.6664 27.459 21.8077 26.221 21.8719 24.983L21.8975 24.5126C21.9104 24.3517 21.9104 24.2031 21.9104 24.0422L21.9103 23.1137C21.8975 22.8042 21.8846 22.4947 21.8718 22.1852C21.859 22.0243 21.8589 21.8757 21.8461 21.7148L21.8076 21.2567C21.7819 20.9472 21.7947 20.6377 21.8589 20.3406L22.2313 18.5703C26.0329 14.1631 21.666 9.79299 21.666 9.79299C22.2055 10.9196 21.4221 12.2318 21.0882 14.7944C20.8057 16.9609 21.6662 18.0875 21.9231 18.3846C21.8204 18.9045 21.7048 19.3502 21.602 19.7092L21.5635 19.4245C21.525 19.115 21.4479 18.8179 21.3965 18.5084L21.3066 18.0503C21.2809 17.9018 21.2424 17.7408 21.2039 17.5923C21.0497 16.9857 20.9084 16.3914 20.7029 15.7972L20.5616 15.3515L20.4974 15.1287L20.4204 14.9059L20.0993 14.0269C19.8938 13.5193 19.6754 13.0117 19.4442 12.5166C19.0332 11.6252 18.7763 10.672 18.7249 9.69395C18.7121 9.47111 18.6992 9.24827 18.6735 9.02544C20.7155 3.64021 15.0901 0.941407 15.0901 0.941407C15.9891 1.82037 15.7066 3.31833 16.2846 5.83144C16.7856 7.97315 17.98 8.75308 18.3139 8.93878C18.4295 9.66919 18.4809 10.2758 18.5195 10.7091C18.5066 10.6967 18.5066 10.6843 18.4938 10.6596L18.2626 10.251C18.1855 10.1149 18.0956 9.99106 18.0186 9.85489L17.5176 9.06258L16.9782 8.29503C16.8883 8.17123 16.7984 8.03505 16.7085 7.91125L16.4259 7.53986C16.1305 7.1437 15.8223 6.75993 15.5012 6.38853C15.0517 5.84382 14.4352 5.03913 13.8957 4.46966C13.6389 4.1973 13.4205 3.90019 13.2664 3.57831C10.9288 -1.16316 5.20075 0.173857 5.20075 0.173857C6.48509 0.248136 7.30708 1.5604 9.47763 3.05836C11.1858 4.24682 12.5472 4.17254 13.0481 4.08588C13.1123 4.11064 13.1765 4.12302 13.2407 4.14778L13.8958 4.80391C14.7563 5.70764 15.5654 6.64851 16.2847 7.66366L16.5544 8.03505C16.6443 8.15885 16.7213 8.29503 16.8113 8.41883L17.325 9.19876L17.5433 9.55777C16.9782 9.08734 16.4003 8.69118 15.8352 8.33217C12.7527 3.42975 7.03747 5.99238 7.03747 5.99238C8.32179 5.8562 9.34928 7.00752 11.751 8.13409C13.7931 9.08734 15.1673 8.6788 15.5398 8.54262C16.3618 9.00068 17.0425 9.45873 17.4278 9.73109C17.6718 9.90441 17.8901 10.1272 18.0186 10.3872L18.2369 10.7958C18.8277 11.8728 19.3029 13.0117 19.7396 14.1631L20.0351 15.0297L20.1121 15.2525L20.1763 15.4753L20.3048 15.921C20.4846 16.5029 20.613 17.1095 20.7415 17.7037C20.78 17.8523 20.8057 18.0008 20.8314 18.1494L20.8314 18.1618C20.4461 17.5923 20.0479 17.0723 19.6241 16.6019C18.1599 11.0434 11.9309 11.8852 11.9309 11.8852C13.1895 12.1204 13.8317 13.5193 15.7839 15.2649C17.4407 16.7628 18.892 16.7505 19.2773 16.7257C19.7269 17.1961 20.0865 17.617 20.3562 17.9389C20.7287 18.3846 20.9855 18.9293 21.0369 19.5112C21.0369 19.5112 21.0369 19.5112 21.0369 19.5235L21.1397 20.4273L21.1654 20.6501L21.1782 20.8729L21.2039 21.331L21.2296 21.789C21.2425 21.9376 21.2425 22.0985 21.2425 22.2471C21.2425 22.5566 21.2553 22.8537 21.2553 23.1632L21.2297 24.0793C21.2297 24.2279 21.2168 24.3764 21.204 24.5374L21.1655 24.9954C21.1141 25.6516 21.0371 26.3077 20.9472 26.9514C20.8187 26.4067 20.6518 25.8868 20.4848 25.3916C21.1782 19.6969 15.0391 18.3351 15.0391 18.3351C16.1308 18.9912 16.2207 20.5139 17.3895 22.8166C18.3913 24.785 19.7399 25.2802 20.1252 25.3792C20.2665 25.7382 20.3949 26.0601 20.4977 26.3448C20.7545 27.0505 20.8188 27.8304 20.639 28.5608L20.639 28.5732C20.3693 29.7617 20.0354 30.9254 19.5987 32.0643C19.1621 33.2033 18.6612 34.3051 18.0833 35.3821C17.9163 35.6916 17.7365 36.0011 17.5439 36.2982C17.6466 35.6545 17.7108 35.0355 17.7365 34.4412C20.5362 29.3903 15.3603 25.9487 15.3603 25.9487C16.1309 26.9391 15.6301 28.3875 15.8356 30.9501C16.0155 33.129 17.0815 34.0698 17.4026 34.3051C17.4026 34.3917 17.4026 34.466 17.4026 34.5527C17.3898 35.9392 16.9531 37.301 16.1183 38.4275L16.1055 38.4399C15.3863 39.4303 14.5772 40.3464 13.7167 41.2254C13.4984 41.4358 13.2929 41.6711 13.0617 41.8691L12.381 42.4881C12.3682 42.4757 12.3682 42.4881 12.3682 42.4757C12.5737 42.1291 12.7535 41.7701 12.9204 41.4235C17.5439 37.8085 14.1404 32.7081 14.1404 32.7081C14.4486 33.9089 13.4083 35.0602 12.5736 37.4991C11.8672 39.5789 12.4709 40.8416 12.6764 41.1759C12.5351 41.4854 12.4067 41.7825 12.2911 42.0301C11.9957 42.6614 11.5462 43.2185 10.9811 43.6395C10.9811 43.6395 10.9811 43.6395 10.9683 43.6518C9.99222 44.3946 8.97761 45.1003 7.91163 45.7069C7.28232 46.0659 6.65301 46.4002 5.99801 46.7096C6.26771 46.4373 6.52457 46.1649 6.7429 45.905C11.1609 43.9366 9.5426 39.2198 9.5426 39.2198C9.52978 40.235 8.4638 40.9406 7.2951 42.7233C6.29335 44.2337 6.51171 45.3602 6.60162 45.6574C6.46034 45.8431 6.31907 46.0164 6.19064 46.1649C5.76683 46.6725 5.22742 47.081 4.5981 47.341C4.5981 47.341 4.5981 47.341 4.58526 47.341C3.44221 47.7991 2.26064 48.1952 1.07906 48.5171H1.06622C0.745142 48.6038 0.501123 48.8885 0.501129 49.2104C0.488298 49.7675 1.01488 50.1141 1.51577 49.9655C2.7744 49.5942 3.9945 49.1485 5.18892 48.6409C6.38333 48.1209 7.52637 47.5143 8.63088 46.8458C9.29872 46.4497 9.94088 46.0164 10.5702 45.5583C11.4178 44.9393 12.4324 44.5679 13.4984 44.4813C19.0468 46.5363 21.9364 41.1511 21.9364 41.1511C21.0117 42.0053 19.4577 41.7082 16.8505 42.2281C14.6286 42.6738 13.7938 43.8128 13.6012 44.147C13.0618 44.2089 12.5994 44.2584 12.2013 44.2832C12.548 43.9861 12.8948 43.6766 13.2415 43.3671L13.9222 42.6986C14.1534 42.4757 14.3589 42.2405 14.5901 42.0053C15.4505 41.0644 16.2725 40.0864 16.9917 39.0465C17.0045 39.0218 17.0174 39.0094 17.0302 38.9846C17.3898 38.4771 17.865 38.0685 18.4301 37.7838C18.52 37.7343 18.6099 37.6971 18.6998 37.6476C24.6463 37.4372 25.1085 31.3834 25.1085 31.3834C24.6462 32.4976 23.0921 32.8071 20.9088 34.2803Z" fill="#39973C"/>
</svg>
