<svg width="26" height="50" viewBox="0 0 26 50" fill="none" xmlns="http://www.w3.org/2000/svg">
<path d="M5.09589 34.2981C6.96007 35.549 7.25575 36.9114 7.30717 37.2953C7.60287 37.4687 7.87285 37.6173 8.12998 37.7412C7.73144 37.1095 7.35861 36.4655 7.02435 35.8091C6.45868 34.682 5.95729 33.5302 5.5459 32.3412C5.49448 32.2173 5.45591 32.0811 5.41734 31.9449C5.09594 30.9664 4.62027 30.0499 4.00317 29.2201C3.9646 29.1705 3.92603 29.1086 3.8746 29.0591C-1.34509 26.3095 1.0463 20.6866 1.0463 20.6866C0.969139 21.9251 2.20335 22.8664 3.48897 25.1329C4.56888 27.0526 4.20888 28.4026 4.08031 28.7618C4.35029 29.1582 4.59456 29.5049 4.81312 29.7898C4.72313 29.4306 4.64599 29.0715 4.58172 28.6999C4.33746 27.4737 4.19606 26.2352 4.13179 24.9967L4.10609 24.526C4.09323 24.365 4.09323 24.2164 4.09324 24.0554L4.09325 23.1265C4.10611 22.8169 4.11897 22.5072 4.13183 22.1976C4.14469 22.0366 4.14469 21.888 4.15755 21.7269L4.19613 21.2687C4.22185 20.9591 4.20899 20.6494 4.14472 20.3522L3.7719 18.5811C-0.0335559 14.1719 4.33772 9.79986 4.33772 9.79986C3.79773 10.9269 4.58195 12.2398 4.91619 14.8035C5.199 16.971 4.3376 18.098 4.08046 18.3953C4.18331 18.9155 4.29901 19.3613 4.40185 19.7205L4.44043 19.4357C4.479 19.126 4.55614 18.8288 4.60758 18.5191L4.69758 18.0609C4.72329 17.9123 4.76186 17.7513 4.80044 17.6026C4.95472 16.9957 5.09615 16.4012 5.30187 15.8068L5.44329 15.3609L5.50758 15.1379L5.58472 14.915L5.90615 14.0356C6.11186 13.5278 6.33043 13.02 6.56185 12.5246C6.97327 11.6329 7.23041 10.6792 7.28185 9.70078C7.29471 9.47784 7.30757 9.2549 7.33329 9.03197C5.28918 3.66911 10.9204 0.956723 10.9204 0.956723C10.0204 1.83608 10.3032 3.33471 9.72464 5.84893C9.22321 7.9916 8.02754 8.77188 7.69327 8.95766C7.57755 9.68839 7.52612 10.2953 7.48754 10.7288C7.5004 10.7164 7.5004 10.704 7.51326 10.6792L7.74468 10.2705C7.82182 10.1343 7.91182 10.0104 7.98896 9.87417L8.49037 9.08151L9.03036 8.31362C9.12035 8.18976 9.21035 8.05353 9.30035 7.92967L9.5832 7.55811C9.8789 7.16178 10.1875 6.77783 10.5089 6.40627C10.9589 5.86132 11.576 5.05627 12.116 4.48655C12.3731 4.21407 12.5917 3.91682 12.746 3.5948C15.0859 -1.17356 20.8199 0.176446 20.8199 0.176446C19.5342 0.250758 18.7114 1.56361 16.5386 3.06223C14.8287 4.25122 13.4659 4.17691 12.9645 4.09022C12.9002 4.11499 12.8359 4.12737 12.7717 4.15214L12.116 4.80857C11.2546 5.7127 10.4446 6.65398 9.72462 7.66958L9.45462 8.04114C9.36463 8.16499 9.28749 8.30123 9.19749 8.42509L8.68322 9.20536L8.46465 9.56454C9.03035 9.09389 9.60889 8.69756 10.1746 8.33839C13.2602 3.43379 18.9813 5.99756 18.9813 5.99756C17.6957 5.86132 16.6671 7.01316 14.263 8.14022C12.2188 9.09389 10.8431 8.68518 10.4703 8.54894C9.64746 9.0072 8.96606 9.46545 8.58036 9.73793C8.33608 9.91133 8.11752 10.1343 7.98895 10.3944L7.77038 10.8031C7.17897 11.8806 6.70326 13.02 6.26613 14.1719L5.97041 15.0389L5.89327 15.2618L5.82899 15.4847L5.70041 15.9306C5.52042 16.5127 5.39184 17.1196 5.26327 17.7141C5.2247 17.8627 5.19898 18.0113 5.17327 18.16L5.17327 18.1724C5.55897 17.6026 5.95753 17.0824 6.3818 16.6118C7.84752 11.0508 14.0829 11.893 14.0829 11.893C12.823 12.1283 12.1801 13.5278 10.2259 15.2742C8.5674 16.7728 7.11462 16.7604 6.72892 16.7357C6.27894 17.2063 5.91895 17.6274 5.64896 17.9494C5.27611 18.3953 5.01898 18.9402 4.96754 19.5224C4.96754 19.5224 4.96754 19.5224 4.96754 19.5347L4.86468 20.4389L4.83896 20.6618L4.8261 20.8847L4.80038 21.343L4.77466 21.8013C4.7618 21.9499 4.7618 22.1109 4.7618 22.2595C4.7618 22.5691 4.74893 22.8664 4.74893 23.176L4.77463 24.0925C4.77463 24.2412 4.78748 24.3898 4.80034 24.5508L4.8389 25.0091C4.89032 25.6655 4.96744 26.3219 5.05743 26.9659C5.186 26.421 5.35315 25.9008 5.52029 25.4054C4.82612 19.7081 10.9715 18.3457 10.9715 18.3457C9.87873 19.0022 9.78871 20.5256 8.61874 22.8292C7.59019 24.7737 6.24025 25.2692 5.85456 25.3682C5.71313 25.7274 5.58456 26.0494 5.4817 26.3343C5.22456 27.0403 5.16027 27.8205 5.34025 28.5513L5.34025 28.5637C5.61022 29.7527 5.94447 30.9169 6.38158 32.0563C6.81868 33.1958 7.32007 34.2981 7.89859 35.3756C8.06572 35.6852 8.24571 35.9949 8.43855 36.2921C8.33571 35.6481 8.27144 35.0288 8.24573 34.4343C5.44309 29.3811 10.6243 25.938 10.6243 25.938C9.8529 26.9288 10.3543 28.3779 10.1485 30.9416C9.96852 33.1215 8.90142 34.0627 8.58 34.2981C8.58 34.3848 8.58 34.4591 8.58 34.5458C8.59284 35.9329 9.02994 37.2953 9.86559 38.4224L9.87845 38.4348C10.5984 39.4256 11.4083 40.3421 12.2697 41.2215C12.4883 41.432 12.694 41.6673 12.9254 41.8655L13.6068 42.4848C13.6196 42.4724 13.6196 42.4848 13.6196 42.4724C13.4139 42.1256 13.2339 41.7664 13.0668 41.4196C8.43853 37.8031 11.8456 32.7004 11.8456 32.7004C11.537 33.9017 12.5784 35.0536 13.414 37.4935C14.1211 39.5742 13.5168 40.8375 13.3111 41.1719C13.4525 41.4816 13.5811 41.7788 13.6968 42.0265C13.9925 42.6582 14.4424 43.2155 15.0081 43.6366C15.0081 43.6366 15.0081 43.6366 15.021 43.649C15.9981 44.3921 17.0137 45.0981 18.0808 45.705C18.7108 46.0641 19.3407 46.3986 19.9964 46.7082C19.7264 46.4357 19.4693 46.1632 19.2507 45.9031C14.8281 43.9339 16.4481 39.2151 16.4481 39.2151C16.4609 40.2306 17.528 40.9366 18.6979 42.7201C19.7007 44.2311 19.4822 45.3582 19.3922 45.6554C19.5336 45.8412 19.675 46.0146 19.8036 46.1632C20.2278 46.671 20.7678 47.0797 21.3977 47.3398C21.3977 47.3398 21.3977 47.3398 21.4106 47.3398C22.5548 47.7981 23.7376 48.1944 24.9204 48.5164L24.9333 48.5164C25.2547 48.6031 25.4989 48.888 25.4989 49.21C25.5118 49.7674 24.9847 50.1142 24.4833 49.9655C23.2233 49.594 22.002 49.1481 20.8063 48.6403C19.6107 48.1201 18.4665 47.5132 17.3608 46.8444C16.6923 46.4481 16.0495 46.0146 15.4195 45.5563C14.571 44.9371 13.5553 44.5655 12.4882 44.4788C6.9342 46.5348 4.04156 41.1472 4.04156 41.1472C4.96722 42.0018 6.52286 41.7045 9.13272 42.2247C11.3569 42.6706 12.1925 43.81 12.3854 44.1444C12.9254 44.2063 13.3882 44.2559 13.7867 44.2807C13.4396 43.9834 13.0925 43.6738 12.7454 43.3641L12.064 42.6953C11.8326 42.4724 11.6269 42.2371 11.3955 42.0018C10.5341 41.0605 9.71129 40.082 8.99134 39.0417C8.97849 39.0169 8.96563 39.0045 8.95278 38.9797C8.5928 38.4719 8.11712 38.0632 7.55143 37.7784C7.46144 37.7288 7.37144 37.6917 7.28145 37.6421C1.3289 37.4316 0.86615 31.3751 0.86615 31.3751C1.35468 32.5146 2.91031 32.8242 5.09589 34.2981Z" fill="#39973C"/>
</svg>
