<svg width="157" height="60" viewBox="0 0 157 60" fill="none" xmlns="http://www.w3.org/2000/svg">
<path fill-rule="evenodd" clip-rule="evenodd" d="M45.0221 16.3025C45.3789 16.8409 46.1383 16.9578 46.6106 16.5172L51.0811 12.3466C51.4191 12.0313 51.4988 11.523 51.2574 11.1287C49.6022 8.42517 47.9543 7.11042 45.0743 5.03621C41.8045 2.68144 38.0402 1.09646 34.0653 0.400824C30.0904 -0.294812 26.0086 -0.0829356 22.128 1.02047C18.2473 2.12388 14.6691 4.09 11.6632 6.77052C8.6573 9.45104 6.30226 12.776 4.77572 16.4945C3.24914 20.213 2.59093 24.228 2.85073 28.2367C3.11053 32.2453 4.28155 36.1429 6.27547 39.6354C6.53206 40.0849 6.78655 40.5082 7.04231 40.9094C7.31054 41.3302 7.24898 41.886 6.881 42.2231L0.44803 48.1155C0.244074 48.3024 0.126602 48.5653 0.12354 48.8419L0.0258593 57.6644C0.0161217 58.5439 1.0648 59.0067 1.70794 58.4067L15.1041 45.9095L16.8713 44.2453L17.3595 43.8055L18.2849 42.9422C18.7525 42.506 18.6958 41.7491 18.1938 41.353C16.2418 39.8129 14.4154 37.7817 13.2286 35.7029C11.8329 33.2583 11.0133 30.5302 10.8314 27.7243C10.6496 24.9184 11.1103 22.1081 12.1788 19.5053C13.2473 16.9025 14.8958 14.5751 16.9998 12.6989C19.1038 10.8226 21.6084 9.4464 24.3247 8.67403C27.041 7.90171 29.8981 7.75339 32.6804 8.24031C35.4626 8.72723 38.0975 9.83666 40.3862 11.4849C42.2148 12.8018 43.7844 14.4352 45.0221 16.3025Z" fill="#333333"/>
<path fill-rule="evenodd" clip-rule="evenodd" d="M61.5407 27.5972C62.3408 27.735 62.9629 26.9122 62.6123 26.1799L57.2737 15.0272C56.9831 14.42 56.1875 14.2677 55.6931 14.7246L46.4352 23.2796C45.8288 23.84 46.1243 24.8523 46.937 24.9983L49.3443 25.4309C49.8207 25.5165 50.1674 25.9311 50.1674 26.4151V27.9256C50.1877 31.3203 49.273 34.6556 47.522 37.5689C45.771 40.4823 43.2514 42.8621 40.2367 44.45C37.222 46.0376 33.8276 46.7721 30.4227 46.5744C28.0646 46.4372 25.764 45.8563 23.6393 44.8723C23.2562 44.6949 22.8012 44.7577 22.4938 45.0472L17.8845 49.3882C17.4124 49.8328 17.4818 50.6027 18.042 50.9293C21.6649 53.041 25.7465 54.2758 29.9562 54.5204C34.8207 54.8032 39.67 53.7538 43.977 51.4852C48.2838 49.217 51.8836 45.817 54.385 41.6549C56.6432 37.8979 57.9247 32.7334 58.1315 28.1965C58.1596 27.5786 58.7166 27.1109 59.3262 27.2159L61.5407 27.5972Z" fill="#FFDD2D"/>
<path d="M77 44.9053L77.0195 34.2947H79.4017V39.4035L83.2581 34.2947H86.1968L82.1061 39.6L86.5483 44.9053H83.4339L79.4017 39.7965V44.9053H77Z" fill="#333333"/>
<path d="M86.3593 44.9053V42.9207C86.7433 42.9928 87.0394 42.9862 87.2477 42.9011C87.456 42.8094 87.6122 42.6391 87.7163 42.3902C87.8205 42.1413 87.9116 41.8105 87.9897 41.3979C88.0939 40.815 88.185 40.1436 88.2631 39.3839C88.3477 38.6241 88.4193 37.8119 88.4779 36.9474C88.543 36.0828 88.6015 35.1986 88.6536 34.2947H96.4152V44.9053H94.0721V36.5151H90.7234C90.6908 36.9408 90.6518 37.419 90.6062 37.9495C90.5607 38.4735 90.5118 39.004 90.4598 39.5411C90.4077 40.0781 90.3491 40.589 90.284 41.0737C90.2255 41.5518 90.1636 41.9612 90.0985 42.3018C89.9488 43.0681 89.734 43.6739 89.4542 44.1193C89.1808 44.5647 88.7968 44.8496 88.3021 44.974C87.8075 45.105 87.1599 45.0821 86.3593 44.9053Z" fill="#333333"/>
<path d="M108.296 34.2947V44.9053H106.041V37.979L101.023 44.9053H99.1385V34.2947H101.394V41.0442L106.432 34.2947H108.296Z" fill="#333333"/>
<path d="M115.831 45.2C114.764 45.2 113.827 44.9675 113.02 44.5025C112.213 44.0374 111.581 43.3923 111.126 42.567C110.677 41.7418 110.452 40.7921 110.452 39.7179C110.452 38.5586 110.673 37.5532 111.116 36.7018C111.558 35.8437 112.174 35.1789 112.961 34.7074C113.749 34.2358 114.66 34 115.695 34C116.788 34 117.716 34.2587 118.477 34.7761C119.245 35.287 119.815 36.0108 120.186 36.9474C120.557 37.884 120.697 38.9876 120.606 40.2583H118.272V39.3937C118.266 38.2409 118.064 37.3993 117.667 36.8688C117.27 36.3382 116.645 36.073 115.792 36.073C114.829 36.073 114.113 36.3743 113.644 36.9768C113.176 37.5729 112.942 38.4473 112.942 39.6C112.942 40.6742 113.176 41.506 113.644 42.0954C114.113 42.6849 114.797 42.9797 115.695 42.9797C116.274 42.9797 116.772 42.8519 117.188 42.5965C117.612 42.3345 117.937 41.9579 118.165 41.4667L120.488 42.174C120.085 43.1303 119.46 43.8737 118.614 44.4042C117.774 44.9347 116.847 45.2 115.831 45.2ZM112.2 40.2583V38.4702H119.454V40.2583H112.2Z" fill="#333333"/>
<path d="M122.764 44.9053V34.2947H125.117V38.48H129.852V34.2947H132.205V44.9053H129.852V40.7004H125.117V44.9053H122.764Z" fill="#333333"/>
<path d="M137.576 44.9053V36.3972H134.052V34.2947H143.454V36.3972H139.929V44.9053H137.576Z" fill="#333333"/>
<path d="M145.294 44.9053L145.284 34.2947H147.637V37.8316H148.819C149.111 37.8316 149.44 37.8381 149.805 37.8512C150.176 37.8643 150.485 37.8938 150.732 37.9397C151.324 38.0706 151.829 38.2802 152.245 38.5684C152.668 38.8566 152.991 39.2332 153.212 39.6983C153.433 40.1633 153.544 40.7233 153.544 41.3783C153.544 42.3149 153.303 43.0648 152.821 43.6281C152.34 44.1848 151.666 44.5647 150.8 44.7677C150.547 44.8267 150.231 44.866 149.853 44.8856C149.476 44.8987 149.141 44.9053 148.848 44.9053H145.294ZM147.637 43.0484H149.053C149.196 43.0484 149.356 43.0419 149.531 43.0288C149.707 43.0157 149.873 42.9862 150.029 42.9404C150.322 42.8618 150.582 42.6849 150.81 42.4098C151.038 42.1282 151.152 41.7843 151.152 41.3783C151.152 40.9525 151.038 40.6021 150.81 40.327C150.582 40.0519 150.303 39.8718 149.971 39.7867C149.814 39.7474 149.655 39.7212 149.492 39.7081C149.336 39.695 149.19 39.6884 149.053 39.6884H147.637V43.0484ZM154.647 44.9053V34.2947H157V44.9053H154.647Z" fill="#333333"/>
<path d="M77 28.68V13.32H79.5668V19.784H86.8304V13.32H89.3865V28.68H86.8304V22.1947H79.5668V28.68H77Z" fill="#333333"/>
<path d="M100.563 29C99.029 29 97.7154 28.6658 96.622 27.9973C95.5285 27.3218 94.6872 26.3831 94.0978 25.1813C93.5156 23.9796 93.2245 22.5858 93.2245 21C93.2245 19.4142 93.5156 18.0204 94.0978 16.8187C94.6872 15.6169 95.5285 14.6818 96.622 14.0133C97.7154 13.3378 99.029 13 100.563 13C102.096 13 103.41 13.3378 104.503 14.0133C105.604 14.6818 106.445 15.6169 107.027 16.8187C107.617 18.0204 107.911 19.4142 107.911 21C107.911 22.5858 107.617 23.9796 107.027 25.1813C106.445 26.3831 105.604 27.3218 104.503 27.9973C103.41 28.6658 102.096 29 100.563 29ZM100.563 26.5787C101.592 26.5858 102.448 26.3582 103.129 25.896C103.818 25.4338 104.333 24.7831 104.674 23.944C105.022 23.1049 105.196 22.1236 105.196 21C105.196 19.8764 105.022 18.9022 104.674 18.0773C104.333 17.2453 103.818 16.5982 103.129 16.136C102.448 15.6738 101.592 15.4356 100.563 15.4213C99.5331 15.4142 98.6775 15.6418 97.9959 16.104C97.3143 16.5662 96.7995 17.2169 96.4516 18.056C96.1108 18.8951 95.9404 19.8764 95.9404 21C95.9404 22.1236 96.1108 23.1013 96.4516 23.9333C96.7924 24.7582 97.3036 25.4018 97.9853 25.864C98.674 26.3262 99.5331 26.5644 100.563 26.5787Z" fill="#333333"/>
<path d="M111.736 28.68V13.32H117.817C118.854 13.32 119.702 13.5298 120.362 13.9493C121.03 14.3618 121.523 14.8916 121.843 15.5387C122.169 16.1858 122.333 16.8542 122.333 17.544C122.333 18.3902 122.13 19.1084 121.726 19.6987C121.328 20.2889 120.785 20.6871 120.096 20.8933V20.36C121.062 20.5804 121.793 21.0391 122.29 21.736C122.794 22.4329 123.046 23.2258 123.046 24.1147C123.046 25.0249 122.872 25.8213 122.524 26.504C122.177 27.1867 121.658 27.72 120.969 28.104C120.288 28.488 119.443 28.68 118.435 28.68H111.736ZM114.334 26.2587H118.115C118.562 26.2587 118.964 26.1698 119.319 25.992C119.674 25.8071 119.951 25.5511 120.149 25.224C120.355 24.8898 120.458 24.4951 120.458 24.04C120.458 23.6276 120.369 23.2578 120.192 22.9307C120.014 22.6036 119.755 22.344 119.414 22.152C119.074 21.9529 118.665 21.8533 118.19 21.8533H114.334V26.2587ZM114.334 19.4533H117.785C118.154 19.4533 118.484 19.3822 118.775 19.24C119.067 19.0978 119.297 18.888 119.468 18.6107C119.638 18.3333 119.723 17.992 119.723 17.5867C119.723 17.0533 119.553 16.6089 119.212 16.2533C118.871 15.8978 118.396 15.72 117.785 15.72H114.334V19.4533Z" fill="#333333"/>
<path d="M126.856 28.68V13.32H129.423V18.6853H133.193C133.335 18.6853 133.527 18.6924 133.768 18.7067C134.01 18.7138 134.23 18.7351 134.429 18.7707C135.309 18.9058 136.037 19.2009 136.612 19.656C137.194 20.1111 137.624 20.6871 137.901 21.384C138.185 22.0738 138.327 22.8382 138.327 23.6773C138.327 24.5236 138.185 25.2951 137.901 25.992C137.624 26.6818 137.194 27.2542 136.612 27.7093C136.037 28.1644 135.309 28.4596 134.429 28.5947C134.23 28.6231 134.01 28.6444 133.768 28.6587C133.534 28.6729 133.342 28.68 133.193 28.68H126.856ZM129.423 26.2693H133.087C133.236 26.2693 133.396 26.2622 133.566 26.248C133.743 26.2338 133.91 26.2089 134.067 26.1733C134.485 26.0667 134.816 25.8782 135.057 25.608C135.306 25.3378 135.479 25.032 135.579 24.6907C135.685 24.3422 135.739 24.0044 135.739 23.6773C135.739 23.3502 135.685 23.016 135.579 22.6747C135.479 22.3333 135.306 22.0276 135.057 21.7573C134.816 21.4871 134.485 21.2987 134.067 21.192C133.91 21.1493 133.743 21.1209 133.566 21.1067C133.396 21.0924 133.236 21.0853 133.087 21.0853H129.423V26.2693ZM139.86 28.68V13.32H142.427V28.68H139.86Z" fill="#333333"/>
<path d="M147.095 28.68V13.32H157V15.7307H149.662V19.5173H155.722V21.928H149.662V26.2693H157V28.68H147.095Z" fill="#333333"/>
<path d="M31.0014 27.4626C34.5125 27.4626 37.3826 24.6599 37.3826 21.2313C37.3826 17.8027 34.5125 15 31.0014 15C27.4902 15 24.6201 17.8027 24.6201 21.2313C24.6201 24.6599 27.4903 27.4626 31.0014 27.4626Z" fill="#333333"/>
<path d="M41.953 32.444C41.7858 32.0358 41.5629 31.6549 41.3121 31.3011C40.0302 29.4508 38.0518 28.2263 35.8225 27.927C35.5439 27.8998 35.2374 27.9541 35.0144 28.1174C33.8441 28.961 32.4508 29.3963 31.0017 29.3963C29.5527 29.3963 28.1594 28.961 26.989 28.1174C26.7661 27.9541 26.4595 27.8725 26.1809 27.927C23.9516 28.2263 21.9453 29.4508 20.6914 31.3011C20.4406 31.6549 20.2176 32.063 20.0505 32.444C19.9669 32.6073 19.9947 32.7977 20.0783 32.961C20.3013 33.342 20.5799 33.7229 20.8307 34.0495C21.2208 34.5665 21.6388 35.029 22.1125 35.4644C22.5026 35.8453 22.9485 36.1991 23.3944 36.5528C25.5958 38.1583 28.243 39.0018 30.9739 39.0018C33.7047 39.0018 36.352 38.1583 38.5534 36.5528C38.9992 36.2263 39.4451 35.8453 39.8352 35.4644C40.2811 35.029 40.7269 34.5664 41.1171 34.0495C41.3957 33.6957 41.6466 33.342 41.8695 32.961C42.0087 32.7977 42.0366 32.6072 41.953 32.444Z" fill="#333333"/>
</svg>
