<svg width="9" height="10" viewBox="0 0 9 10" fill="none" xmlns="http://www.w3.org/2000/svg">
<path d="M4.04849 2.7211C4.04849 3.05375 3.99192 3.35396 3.87879 3.6217C3.7697 3.88945 3.62222 4.11866 3.43636 4.30933C3.2505 4.49594 3.03434 4.63996 2.78788 4.74138C2.54141 4.8428 2.28485 4.89351 2.01818 4.89351C1.72727 4.89351 1.45859 4.8428 1.21212 4.74138C0.965656 4.63996 0.751515 4.49594 0.569697 4.30933C0.391919 4.11866 0.252525 3.88945 0.151515 3.6217C0.050505 3.35396 0 3.05375 0 2.7211C0 2.38032 0.050505 2.07201 0.151515 1.79615C0.252525 1.52028 0.391919 1.28702 0.569697 1.09635C0.751515 0.90568 0.965656 0.759635 1.21212 0.658215C1.45859 0.552738 1.72727 0.5 2.01818 0.5C2.30909 0.5 2.57778 0.552738 2.82424 0.658215C3.07475 0.759635 3.29091 0.90568 3.47273 1.09635C3.65455 1.28702 3.79596 1.52028 3.89697 1.79615C3.99798 2.07201 4.04849 2.38032 4.04849 2.7211ZM2.89697 2.7211C2.89697 2.4858 2.87273 2.28905 2.82424 2.13083C2.7798 1.97262 2.71717 1.84483 2.63636 1.74746C2.5596 1.6501 2.46667 1.58114 2.35758 1.54057C2.25253 1.49594 2.13939 1.47363 2.01818 1.47363C1.89697 1.47363 1.78384 1.49594 1.67879 1.54057C1.57374 1.58114 1.48283 1.6501 1.40606 1.74746C1.33333 1.84483 1.27475 1.97262 1.2303 2.13083C1.18586 2.28905 1.16364 2.4858 1.16364 2.7211C1.16364 2.94828 1.18586 3.13894 1.2303 3.2931C1.27475 3.4432 1.33333 3.56491 1.40606 3.65822C1.48283 3.75152 1.57374 3.81846 1.67879 3.85903C1.78384 3.89959 1.89697 3.91988 2.01818 3.91988C2.13939 3.91988 2.25253 3.89959 2.35758 3.85903C2.46667 3.81846 2.5596 3.75152 2.63636 3.65822C2.71717 3.56491 2.7798 3.4432 2.82424 3.2931C2.87273 3.13894 2.89697 2.94828 2.89697 2.7211ZM6.96364 0.8286C7.01616 0.767749 7.07677 0.712982 7.14545 0.664301C7.21818 0.615619 7.31919 0.591278 7.44848 0.591278H8.53939L2.0303 9.16531C1.97778 9.23022 1.91515 9.28499 1.84242 9.32961C1.7697 9.37018 1.68081 9.39047 1.57576 9.39047H0.460606L6.96364 0.8286ZM9 7.3215C9 7.65416 8.94343 7.95436 8.8303 8.22211C8.72121 8.48986 8.57374 8.71907 8.38788 8.90974C8.20202 9.09635 7.98586 9.24239 7.73939 9.34787C7.49293 9.44929 7.23636 9.5 6.9697 9.5C6.67879 9.5 6.4101 9.44929 6.16364 9.34787C5.91717 9.24239 5.70303 9.09635 5.52121 8.90974C5.34343 8.71907 5.20404 8.48986 5.10303 8.22211C5.00202 7.95436 4.95152 7.65416 4.95152 7.3215C4.95152 6.98073 5.00202 6.67241 5.10303 6.39655C5.20404 6.12069 5.34343 5.88742 5.52121 5.69675C5.70303 5.50608 5.91717 5.36004 6.16364 5.25862C6.4101 5.15314 6.67879 5.10041 6.9697 5.10041C7.26061 5.10041 7.52929 5.15314 7.77576 5.25862C8.02626 5.36004 8.2404 5.50608 8.41818 5.69675C8.6 5.88742 8.74141 6.12069 8.84242 6.39655C8.94747 6.67241 9 6.98073 9 7.3215ZM7.84242 7.3215C7.84242 7.08621 7.8202 6.88945 7.77576 6.73124C7.73131 6.57302 7.66869 6.44523 7.58788 6.34787C7.51111 6.25051 7.41818 6.18154 7.30909 6.14097C7.20404 6.09635 7.09091 6.07404 6.9697 6.07404C6.84848 6.07404 6.73535 6.09635 6.6303 6.14097C6.52525 6.18154 6.43434 6.25051 6.35758 6.34787C6.28081 6.44523 6.2202 6.57302 6.17576 6.73124C6.13535 6.88945 6.11515 7.08621 6.11515 7.3215C6.11515 7.54868 6.13535 7.73935 6.17576 7.89351C6.2202 8.04767 6.28081 8.1714 6.35758 8.26471C6.43434 8.35801 6.52525 8.42495 6.6303 8.46552C6.73535 8.50608 6.84848 8.52637 6.9697 8.52637C7.09091 8.52637 7.20404 8.50608 7.30909 8.46552C7.41818 8.42495 7.51111 8.35801 7.58788 8.26471C7.66869 8.1714 7.73131 8.04767 7.77576 7.89351C7.8202 7.73935 7.84242 7.54868 7.84242 7.3215Z" fill="#7F42E1"/>
</svg>
